name C:\Users\antoi\Documents\MyRepositories\upper-imu-dc\Results\main_tracking\Case_84\kinematics.mot
datacolumns 43
datarows 7
range 2.20000000 2.32000000
endheader 
time	clav_prot	clav_elev	scapula_abduction	scapula_elevation	scapula_upward_rot	scapula_winging	plane_elv	shoulder_elv	axial_rot	TrapeziusScapula_M/activation	TrapeziusScapula_S/activation	TrapeziusScapula_I/activation	TrapeziusClavicle_S/activation	SerratusAnterior_I/activation	SerratusAnterior_M/activation	SerratusAnterior_S/activation	Rhomboideus_S/activation	Rhomboideus_I/activation	LevatorScapulae/activation	Coracobrachialis/activation	DeltoideusClavicle_A/activation	DeltoideusScapula_P/activation	DeltoideusScapula_M/activation	LatissimusDorsi_S/activation	LatissimusDorsi_M/activation	LatissimusDorsi_I/activation	PectoralisMajorClavicle_S/activation	PectoralisMajorThorax_I/activation	PectoralisMajorThorax_M/activation	TeresMajor/activation	Infraspinatus_I/activation	Infraspinatus_S/activation	PectoralisMinor/activation	TeresMinor/activation	Subscapularis_S/activation	Subscapularis_M/activation	Subscapularis_I/activation	Supraspinatus_P/activation	Supraspinatus_A/activation	TRIlong/activation	BIC_long/activation	BIC_brevis/activation	
          2.20000000	        -23.67769336	         -0.25345961	          6.45875876	         -6.96625587	         44.02429341	         -2.58991416	         60.61634915	         88.85297518	         -9.79658684	          0.04384585	          0.06839617	          0.03453380	          0.05546707	          0.08185567	          0.10665484	          0.03565781	          0.03344799	          0.01533890	          0.03306971	          0.05925793	          0.07573901	          0.02785724	          0.09813190	          0.01000000	          0.01000000	          0.01000000	          0.05715643	          0.01000000	          0.01230225	          0.01000303	          0.08828399	          0.04287055	          0.01000000	          0.06186746	          0.02735970	          0.02301310	          0.01000000	          0.04512799	          0.04638588	          0.01000000	          0.03201991	          0.06618137	
          2.22000000	        -24.15658444	         -0.15680857	          6.12012030	         -6.99370572	         44.67913471	         -2.71722763	         60.58001147	         89.49253577	         -9.72124546	          0.04341036	          0.06891070	          0.03538777	          0.05588584	          0.08107591	          0.10716800	          0.03435626	          0.03303811	          0.01556447	          0.03237399	          0.05789403	          0.07457723	          0.03016573	          0.09754392	          0.01000000	          0.01000000	          0.01000000	          0.05677483	          0.01000000	          0.01215743	          0.01082347	          0.08837986	          0.04394911	          0.01000000	          0.06231768	          0.02705725	          0.02263215	          0.01000000	          0.04486678	          0.04584255	          0.01000000	          0.03162711	          0.06417946	
          2.24000000	        -24.67660243	         -0.05358681	          5.73488969	         -7.01999387	         45.36502497	         -2.85648945	         60.55975499	         90.09980458	         -9.68015693	          0.04421713	          0.06940740	          0.03618277	          0.05484853	          0.08169199	          0.10771158	          0.03426092	          0.03322962	          0.01536613	          0.03280591	          0.05698898	          0.07269868	          0.03276829	          0.09730589	          0.01000000	          0.01000000	          0.01000000	          0.05545322	          0.01000000	          0.01098931	          0.01161777	          0.08929208	          0.04467660	          0.01000000	          0.06259850	          0.02740305	          0.02251116	          0.01000000	          0.04463377	          0.04595312	          0.01000000	          0.03220784	          0.06356003	
          2.26000000	        -25.23350877	          0.05658132	          5.30638010	         -7.04382189	         46.07653717	         -3.00850684	         60.54851949	         90.68117532	         -9.66670185	          0.04387814	          0.06899568	          0.03604185	          0.05522758	          0.07946804	          0.10784143	          0.03445703	          0.03274449	          0.01564085	          0.03136919	          0.05539022	          0.07170553	          0.03438432	          0.09616946	          0.01000000	          0.01000000	          0.01000000	          0.05453955	          0.01000000	          0.01130863	          0.01210614	          0.08779947	          0.04343299	          0.01000000	          0.06326351	          0.02676482	          0.02254104	          0.01000000	          0.04424591	          0.04522168	          0.01106255	          0.03144124	          0.06009703	
          2.28000000	        -25.81909733	          0.16742475	          4.84646064	         -7.06845660	         46.80841929	         -3.17120991	         60.53546613	         91.23775098	         -9.67561719	          0.04344130	          0.06863045	          0.03630385	          0.05451273	          0.07925101	          0.10801324	          0.03458247	          0.03262811	          0.01647011	          0.03141155	          0.05397276	          0.06992168	          0.03672959	          0.09409804	          0.01000000	          0.01000000	          0.01000000	          0.05348815	          0.01000000	          0.01198565	          0.01353855	          0.08881933	          0.04437192	          0.01000000	          0.06330601	          0.02659834	          0.02242953	          0.01000000	          0.04371079	          0.04482607	          0.01108786	          0.03167042	          0.05836176	
          2.30000000	        -26.42710788	          0.27853285	          4.36070318	         -7.09299167	         47.55358392	         -3.34429496	         60.51535665	         91.77230508	         -9.70465116	          0.04348653	          0.06808450	          0.03634830	          0.05410015	          0.07839001	          0.10799633	          0.03491244	          0.03239360	          0.01704650	          0.03098026	          0.05236273	          0.06852994	          0.03909925	          0.09343892	          0.01000000	          0.01000000	          0.01000000	          0.05232522	          0.01000000	          0.01230891	          0.01426622	          0.08820476	          0.04455740	          0.01000000	          0.06364128	          0.02653353	          0.02240973	          0.01000000	          0.04347386	          0.04441728	          0.01359835	          0.03155873	          0.05589937	
          2.32000000	        -27.05390847	          0.38951716	          3.85324332	         -7.11709014	         48.30894685	         -3.52787872	         60.48359252	         92.28350301	         -9.74811011	          0.04306375	          0.06730703	          0.03627270	          0.05356851	          0.07752722	          0.10758846	          0.03535120	          0.03218840	          0.01738976	          0.03078698	          0.05075237	          0.06685567	          0.04150954	          0.09158414	          0.01000000	          0.01000000	          0.01000000	          0.05117168	          0.01000000	          0.01263916	          0.01515912	          0.08788815	          0.04535241	          0.01000000	          0.06366509	          0.02626029	          0.02217094	          0.01000000	          0.04303296	          0.04387746	          0.01513392	          0.03156332	          0.05378837	
